<?xml version="1.0" encoding="UTF-8" standalone="no"?>
<!-- Created with Inkscape (http://www.inkscape.org/) -->

<svg
   xmlns:dc="http://purl.org/dc/elements/1.1/"
   xmlns:cc="http://creativecommons.org/ns#"
   xmlns:rdf="http://www.w3.org/1999/02/22-rdf-syntax-ns#"
   xmlns:svg="http://www.w3.org/2000/svg"
   xmlns="http://www.w3.org/2000/svg"
   xmlns:sodipodi="http://sodipodi.sourceforge.net/DTD/sodipodi-0.dtd"
   xmlns:inkscape="http://www.inkscape.org/namespaces/inkscape"
   width="12mm"
   height="38mm"
   viewBox="0 0 12 38"
   version="1.1"
   id="svg8"
   inkscape:version="0.92.4 (5da689c313, 2019-01-14)"
   sodipodi:docname="arrow.svg">
  <defs
     id="defs2" />
  <sodipodi:namedview
     id="base"
     pagecolor="#ffffff"
     bordercolor="#666666"
     borderopacity="1.0"
     inkscape:pageopacity="0.0"
     inkscape:pageshadow="2"
     inkscape:zoom="2.3214844"
     inkscape:cx="53.841928"
     inkscape:cy="153.75284"
     inkscape:document-units="mm"
     inkscape:current-layer="layer1"
     showgrid="false"
     inkscape:window-width="1920"
     inkscape:window-height="1001"
     inkscape:window-x="-9"
     inkscape:window-y="-9"
     inkscape:window-maximized="1" />
  <metadata
     id="metadata5">
    <rdf:RDF>
      <cc:Work
         rdf:about="">
        <dc:format>image/svg+xml</dc:format>
        <dc:type
           rdf:resource="http://purl.org/dc/dcmitype/StillImage" />
        <dc:title></dc:title>
      </cc:Work>
    </rdf:RDF>
  </metadata>
  <g
     inkscape:label="Layer 1"
     inkscape:groupmode="layer"
     id="layer1"
     transform="translate(0,-259)">
    <path
       style="fill:#000000;stroke-width:0.10147513"
       d="m 3.0404844,296.18776 c 2.513336,-1.16363 5.04403,-2.32536 7.4265096,-3.73911 0.141832,-0.68798 -1.2312896,-0.39596 -0.171039,-0.79934 1.386519,-1.57737 -1.8447036,-0.13605 -2.5596726,0.16453 -0.813839,0.24755 -3.303634,1.43553 -3.200492,1.1216 4.191202,-2.75238 5.9367106,-7.8836 6.5785446,-12.63693 0.580665,-5.36016 0.621975,-10.93108 -1.3450786,-16.03641 -0.583691,-1.61465 -1.481369,-3.40158 -3.27483,-3.87889 -1.352673,-1.68114 -0.842515,1.00239 -0.197141,1.7015 1.910878,4.34537 2.73027,9.14008 2.520496,13.87657 -0.07219,4.4482 -1.241427,8.86106 -3.126927,12.87748 -0.649773,1.22206 -1.431952,2.79547 -2.45851,3.54554 0.619505,-2.18635 1.53769,-4.31693 1.922265,-6.55253 -0.525533,-0.55082 -1.244257,1.40079 -1.235371,-0.092 -1.274398,0.16586 -1.105634,2.78645 -1.734812,3.93806 -0.7023893,2.31235 -1.54531825,4.62915 -1.78248125,7.04526 0.93539795,0.0986 1.80160025,-0.0894 2.63853925,-0.53531 z m 1.948656,-4.5285 c 0.732837,-0.74707 -0.549776,0.83327 0,0 z m 2.46745,-2.7529 c 0.405489,-0.62487 1.077231,-2.12586 1.257945,-2.17625 -0.371669,0.76282 -1.011808,2.09681 -1.399164,2.4293 z m 0.510929,-3.96232 c 1.253438,-3.70564 1.653653,-7.64078 1.656089,-11.53535 0.283596,2.61208 0.1382,5.31204 -0.413532,7.88993 -0.361053,1.56882 -0.826932,3.13041 -1.51627,4.58591 0.05527,-0.32311 0.175004,-0.62952 0.273713,-0.94049 z m 2.6594056,-9.40049 c 0.09855,-0.24616 3.83e-4,2.05034 -0.0153,0.51924 l 0.0038,-0.2733 0.01158,-0.24594 z m -0.09816,-1.42406 c 0.133843,0.0325 -0.04053,0.97616 0,0 z m -1.7773536,-9.61476 c -0.306312,-0.65197 -1.629917,-3.69601 -0.488001,-1.83936 0.876063,1.59446 1.395943,3.36212 1.8244616,5.12004 -0.4837466,-1.07509 -0.8393926,-2.20861 -1.3364606,-3.28068 z m -1.55045,-2.94278 c -0.0085,-0.38878 0.464077,0.40949 0,0 z"
       id="path21"
       inkscape:connector-curvature="0"
       sodipodi:nodetypes="ccccccccccccccccccccccccccccccccccccccccc" />
  </g>
</svg>
