<?xml version="1.0" encoding="UTF-8" standalone="no"?>
<svg
   xmlns:dc="http://purl.org/dc/elements/1.1/"
   xmlns:cc="http://creativecommons.org/ns#"
   xmlns:rdf="http://www.w3.org/1999/02/22-rdf-syntax-ns#"
   xmlns:svg="http://www.w3.org/2000/svg"
   xmlns="http://www.w3.org/2000/svg"
   xmlns:sodipodi="http://sodipodi.sourceforge.net/DTD/sodipodi-0.dtd"
   xmlns:inkscape="http://www.inkscape.org/namespaces/inkscape"
   width="48"
   height="48"
   viewBox="0 0 12.7 12.7"
   version="1.1"
   id="svg8"
   inkscape:version="1.0 (4035a4fb49, 2020-05-01)"
   sodipodi:docname="project.svg">
  <defs
     id="defs2">
    <inkscape:perspective
       sodipodi:type="inkscape:persp3d"
       inkscape:vp_x="0 : 6.35 : 1"
       inkscape:vp_y="0 : 1000 : 0"
       inkscape:vp_z="12.7 : 6.35 : 1"
       inkscape:persp3d-origin="6.35 : 4.2333333 : 1"
       id="perspective940" />
  </defs>
  <sodipodi:namedview
     id="base"
     pagecolor="#404040"
     bordercolor="#666666"
     borderopacity="1.0"
     inkscape:pageopacity="0"
     inkscape:pageshadow="2"
     inkscape:zoom="15.746674"
     inkscape:cx="37.251905"
     inkscape:cy="19.86666"
     inkscape:document-units="mm"
     inkscape:current-layer="layer1"
     inkscape:document-rotation="0"
     showgrid="false"
     units="px"
     inkscape:window-width="1920"
     inkscape:window-height="1001"
     inkscape:window-x="-9"
     inkscape:window-y="-9"
     inkscape:window-maximized="1" />
  <metadata
     id="metadata5">
    <rdf:RDF>
      <cc:Work
         rdf:about="">
        <dc:format>image/svg+xml</dc:format>
        <dc:type
           rdf:resource="http://purl.org/dc/dcmitype/StillImage" />
        <dc:title />
      </cc:Work>
    </rdf:RDF>
  </metadata>
  <g
     inkscape:label="Warstwa 1"
     inkscape:groupmode="layer"
     id="layer1">
    <path
       sodipodi:nodetypes="ccccccscccccccccsccccccscccccscccccsssssscsssssscscssccscssssscsscccssccss"
       id="path954"
       style="fill:#ffffff;stroke:#ffffff;stroke-width:0.0216119;stroke-miterlimit:4;stroke-dasharray:none;stroke-opacity:1"
       d="M 1.4367026,0.35017905 1.1959666,0.47318503 C 0.69503077,0.72911114 0.40470462,1.0675265 0.3237475,1.4901344 0.250754,1.8711046 0.2430732,2.4181448 0.25026097,6.8634136 l 0.007096,4.4099854 0.10997548,0.213615 c 0.24264572,0.471769 0.47436692,0.70443 0.85498915,0.859522 0.2496726,0.101736 0.3388218,0.11254 1.051122,0.129081 0.365484,0.0085 1.3515631,0.0175 2.1909364,0.01974 l 1.5260026,0.004 V 12.015446 11.53203 L 4.892125,11.52993 C 4.2881498,11.52883 3.3124839,11.52093 2.7239948,11.51221 1.7531995,11.49791 1.6462627,11.49231 1.5694858,11.45501 1.4636475,11.403707 1.2705534,11.195602 1.2507027,11.111417 1.2137077,10.954536 1.1950454,9.3628076 1.1949546,6.4022681 1.1948638,3.4614669 1.2136402,1.8533832 1.2507027,1.6936255 1.2684956,1.6169318 1.4443703,1.4180159 1.5360364,1.3706718 1.5769314,1.3495492 1.7106395,1.3280568 1.8766122,1.3160027 2.0269041,1.3050889 3.7824639,1.2961436 5.7780304,1.2957548 l 3.6282466,-0.00101 0.1398784,0.09719 c 0.272773,0.1896035 0.270994,0.1805893 0.297496,1.5115036 0.05076,2.5490783 0.07339,3.5209179 0.08616,3.6765075 L 9.9434914,6.7464823 10.379348,6.9358 c 0.239714,0.1041543 0.439306,0.1858663 0.443457,0.1817246 0.0041,-0.00414 -7.19e-4,-1.2070748 -0.01115,-2.6732252 C 10.790812,1.5123973 10.792608,1.5542358 10.650995,1.2501977 10.55603,1.0463137 10.358984,0.79740911 10.194867,0.6741455 10.118625,0.61688774 9.9576294,0.52047212 9.8370594,0.46002448 L 9.6176164,0.35017905 H 5.5271591 Z m 7.845405,7.06448285 c -0.1097652,0 -0.2743238,0.070149 -0.3618614,0.15439 -0.064721,0.062281 -0.097071,0.1217424 -0.1358255,0.2505673 -0.1285366,0.4272719 -0.4186604,1.7897102 -0.577256,2.7111898 -0.099266,0.576757 -0.1096303,0.848314 -0.038515,1.005307 0.050592,0.111685 0.1274494,0.190505 0.2275566,0.234875 0.1099443,0.04873 0.3620768,0.03722 0.4910986,-0.02277 0.1959302,-0.09112 0.2136558,-0.133707 0.3785853,-0.891417 0.2566117,-1.1789184 0.5762437,-2.8333157 0.5762437,-2.9825157 0,-0.1065769 -0.047,-0.191357 -0.160661,-0.2885319 C 9.5795304,7.4986029 9.3833337,7.4146619 9.2821076,7.4146619 Z m 1.3384844,0.3143482 c -0.124875,-0.00261 -0.243637,0.05706 -0.366931,0.180206 -0.116238,0.1160967 -0.192397,0.2699546 -0.195122,0.3943273 -0.003,0.1381697 0.108792,0.2889039 0.546847,0.7360101 0.211033,0.2153949 0.363515,0.388497 0.356794,0.4049576 -0.0065,0.015816 -0.114028,0.1425735 -0.238707,0.2819515 -0.476759,0.5329664 -0.588406,0.7051174 -0.588406,0.9055864 0,0.06877 0.01762,0.14813 0.04409,0.199947 0.05515,0.107982 0.253566,0.288274 0.347164,0.315361 0.269576,0.07801 0.547195,-0.09172 1.093191,-0.66818 C 12.255705,9.8074892 12.444413,9.5246122 12.387835,9.3275795 12.297675,9.0135789 11.371593,8.091353 10.854232,7.8003837 10.772862,7.7546177 10.695518,7.7305707 10.620593,7.7290097 Z M 7.1570574,7.8206316 C 7.0544462,7.805096 6.958675,7.8385075 6.8210434,7.9284516 6.3844448,8.2137748 5.6225696,9.028578 5.435934,9.4095833 5.369866,9.5444856 5.373206,9.6168905 5.452657,9.7659459 5.53276,9.9162212 5.7895506,10.203989 6.152053,10.549032 c 0.4822631,0.459035 0.7293173,0.642712 0.9310083,0.691971 0.099762,0.02436 0.105764,0.02367 0.2265446,-0.01265 0.2192667,-0.06595 0.4156095,-0.301168 0.4145716,-0.496584 C 7.7230776,10.534862 7.595091,10.346723 7.1575635,9.899582 6.9740418,9.7120302 6.8235761,9.5511227 6.8235761,9.542207 c 0,-0.00891 0.1294603,-0.1629607 0.2873629,-0.342189 C 7.4224781,8.8463986 7.6495962,8.5444217 7.6724829,8.4533777 7.7198183,8.2649991 7.5087574,7.954161 7.2639943,7.8520158 7.22647,7.8363559 7.1912603,7.8258101 7.1570574,7.8206316 Z" />
  </g>
</svg>
