<?xml version="1.0" encoding="UTF-8" standalone="no"?>
<svg
   xmlns:dc="http://purl.org/dc/elements/1.1/"
   xmlns:cc="http://creativecommons.org/ns#"
   xmlns:rdf="http://www.w3.org/1999/02/22-rdf-syntax-ns#"
   xmlns:svg="http://www.w3.org/2000/svg"
   xmlns="http://www.w3.org/2000/svg"
   xmlns:sodipodi="http://sodipodi.sourceforge.net/DTD/sodipodi-0.dtd"
   xmlns:inkscape="http://www.inkscape.org/namespaces/inkscape"
   inkscape:version="1.0 (4035a4fb49, 2020-05-01)"
   sodipodi:docname="cordova.svg"
   xml:space="preserve"
   style="enable-background:new 0 0 500 500;"
   viewBox="0 0 500 500"
   y="0px"
   x="0px"
   id="Layer_1"
   version="1.1"><metadata
   id="metadata11"><rdf:RDF><cc:Work
       rdf:about=""><dc:format>image/svg+xml</dc:format><dc:type
         rdf:resource="http://purl.org/dc/dcmitype/StillImage" /><dc:title></dc:title></cc:Work></rdf:RDF></metadata><defs
   id="defs9" /><sodipodi:namedview
   inkscape:current-layer="Layer_1"
   inkscape:window-maximized="1"
   inkscape:window-y="-9"
   inkscape:window-x="-9"
   inkscape:cy="199.656"
   inkscape:cx="233.86583"
   inkscape:zoom="1.1591859"
   inkscape:snap-global="false"
   showgrid="false"
   id="namedview7"
   inkscape:window-height="1001"
   inkscape:window-width="1920"
   inkscape:pageshadow="2"
   inkscape:pageopacity="0"
   guidetolerance="10"
   gridtolerance="10"
   objecttolerance="10"
   borderopacity="1"
   bordercolor="#666666"
   pagecolor="#707070" />
<style
   id="style2"
   type="text/css">
	.st0{fill:#444444;}
</style>

<g
   style="fill:#f9f9f9"
   transform="matrix(1.2815036,0,0,1.2815036,-70.38996,-70.375885)"
   id="g848">
	<path
   style="fill:#f9f9f9"
   id="path846"
   class="st0"
   d="m 399.3,424.2 h -59.1 l 4.1,-49.8 h -29 l -4.1,49.8 H 188.8 l -4.1,-49.8 h -29 l 4.1,49.8 H 100.7 L 67.5,208.5 150.5,75.8 h 199.1 l 83,132.7 z M 333,142.2 h -53.3 l 3.6,24.9 h -66.4 l 3.6,-24.9 H 167 l -33.2,66.4 16.6,132.7 h 199.1 l 16.6,-132.7 z m -29.1,155 c -4.6,0 -8.3,-13.8 -8.3,-30.9 0,-17 3.7,-30.9 8.3,-30.9 4.6,0 8.3,13.8 8.3,30.9 0,17.1 -3.7,30.9 -8.3,30.9 z m -104.7,2.6 c -4.6,0 -8.3,-13.8 -8.3,-30.9 0,-17.1 3.7,-30.9 8.3,-30.9 4.6,0 8.3,13.8 8.3,30.9 0,17.1 -3.7,30.9 -8.3,30.9 z" />
</g></svg>
