<?xml version="1.0" encoding="UTF-8" standalone="no"?>
<svg
   xmlns:dc="http://purl.org/dc/elements/1.1/"
   xmlns:cc="http://creativecommons.org/ns#"
   xmlns:rdf="http://www.w3.org/1999/02/22-rdf-syntax-ns#"
   xmlns:svg="http://www.w3.org/2000/svg"
   xmlns="http://www.w3.org/2000/svg"
   xmlns:sodipodi="http://sodipodi.sourceforge.net/DTD/sodipodi-0.dtd"
   xmlns:inkscape="http://www.inkscape.org/namespaces/inkscape"
   sodipodi:docname="skils.svg"
   inkscape:version="1.0 (4035a4fb49, 2020-05-01)"
   id="svg8"
   version="1.1"
   viewBox="0 0 12.7 12.7"
   height="48"
   width="48">
  <defs
     id="defs2">
    <inkscape:perspective
       id="perspective940"
       inkscape:persp3d-origin="6.35 : 4.2333333 : 1"
       inkscape:vp_z="12.7 : 6.35 : 1"
       inkscape:vp_y="0 : 1000 : 0"
       inkscape:vp_x="0 : 6.35 : 1"
       sodipodi:type="inkscape:persp3d" />
  </defs>
  <sodipodi:namedview
     inkscape:snap-global="false"
     inkscape:window-maximized="1"
     inkscape:window-y="-9"
     inkscape:window-x="-9"
     inkscape:window-height="1001"
     inkscape:window-width="1920"
     units="px"
     showgrid="false"
     inkscape:document-rotation="0"
     inkscape:current-layer="layer1"
     inkscape:document-units="mm"
     inkscape:cy="61.858896"
     inkscape:cx="-88.008909"
     inkscape:zoom="2.8798615"
     inkscape:pageshadow="2"
     inkscape:pageopacity="0"
     borderopacity="1.0"
     bordercolor="#666666"
     pagecolor="#404040"
     id="base" />
  <metadata
     id="metadata5">
    <rdf:RDF>
      <cc:Work
         rdf:about="">
        <dc:format>image/svg+xml</dc:format>
        <dc:type
           rdf:resource="http://purl.org/dc/dcmitype/StillImage" />
        <dc:title></dc:title>
      </cc:Work>
    </rdf:RDF>
  </metadata>
  <g
     id="layer1"
     inkscape:groupmode="layer"
     inkscape:label="Warstwa 1">
    <path
       id="path1018"
       d="M 5.3741826,12.185838 C 4.4520511,11.97579 3.8037579,11.208689 3.7567158,10.271951 3.7362593,9.8647499 3.7996141,9.5694929 3.9919335,9.1756487 4.0669624,9.0219974 4.1226554,8.8913895 4.1156927,8.8854082 4.1087424,8.8793917 3.9514065,8.8250555 3.7660821,8.7645577 3.0069206,8.5168005 2.7297327,8.3244667 2.5212075,7.9007678 2.4044669,7.6635647 2.3700374,7.2957662 2.4340562,6.9697694 2.4717905,6.777612 2.6697449,6.0594528 2.7205985,5.930208 2.738835,5.8838802 2.6988931,5.8726147 2.4453153,5.8525317 1.71745,5.7948762 1.2108804,5.5315671 0.87631055,5.03697 0.46492326,4.4288129 0.39642957,3.5141429 0.71248907,2.8492882 1.0720673,2.0928895 1.9226729,1.6570244 2.8391366,1.7595579 3.1336913,1.7925172 3.459192,1.9015057 3.6807599,2.041377 c 0.078226,0.049382 0.1463134,0.084899 0.1513009,0.07893 0.005,-0.00596 0.05831,-0.1624853 0.1184939,-0.3478089 C 4.125533,1.2336641 4.2714454,0.95763145 4.504265,0.72499641 4.7366684,0.49277703 4.9927952,0.37379017 5.2583587,0.37467297 c 0.3126605,0.001043 1.0867236,0.19428409 2.9788023,0.74365693 1.2536334,0.3639973 2.773365,0.8318628 3.185549,0.9807043 0.368362,0.1330165 0.613854,0.3497099 0.80216,0.708058 0.220998,0.4205573 0.197233,0.6808363 -0.170116,1.8631955 C 11.751215,5.6472704 11.626714,5.8865297 11.379405,5.96815 11.131979,6.0498096 10.913014,5.910598 10.691021,5.5304906 10.544754,5.2800446 10.342717,5.0789887 10.156032,4.9980946 9.9730027,4.9187793 9.598652,4.9270781 9.4037774,5.0146921 9.2137196,5.1001898 8.966764,5.3493329 8.8626637,5.5605816 c -0.1052431,0.2135685 -0.1028971,0.5341511 0.00544,0.7438772 0.2230567,0.4318088 0.4573612,0.5848771 0.895733,0.5851676 0.2416173,1.681e-4 0.2992533,-0.013284 0.5559713,-0.1305392 0.46169,-0.2107261 0.730821,-0.1741284 0.886609,0.1206012 0.04607,0.087137 0.05674,0.1610787 0.04344,0.3008618 -0.03073,0.3229731 -0.409588,1.6791486 -0.630667,2.2575818 -0.182421,0.47729 -0.543947,0.780421 -1.0506506,0.88095 -0.2300886,0.04564 -0.5221111,-0.002 -1.1941693,-0.194523 -0.2267647,-0.06498 -0.4255428,-0.109979 -0.4417292,-0.09998 -0.016182,0.01 -0.03983,0.132967 -0.052544,0.273255 -0.024251,0.267654 -0.120693,0.625081 -0.2228448,0.825925 -0.240195,0.472251 -0.709417,0.862976 -1.2368709,1.029956 -0.2329277,0.07373 -0.7885304,0.09077 -1.0462024,0.03207 z M 6.2737694,11.036861 C 6.3717735,10.983521 6.5101924,10.873728 6.5813686,10.79286 6.8568964,10.479842 6.8807079,10.11665 6.6602419,9.5897978 6.4658789,9.125321 6.4950451,8.8445867 6.7514411,8.7119996 6.9586505,8.6048427 7.2197747,8.6507135 8.4866885,9.0168191 c 0.4171603,0.1205389 0.788985,0.2191781 0.8262772,0.2191781 0.1222256,0 0.196979,-0.066993 0.2979314,-0.2669688 0.093444,-0.1851036 0.304566,-0.832269 0.304566,-0.9335947 0,-0.03419 -0.054955,-0.046162 -0.2119392,-0.046162 -0.7204942,0 -1.4377131,-0.4601739 -1.7593183,-1.1287906 C 7.7699298,6.498162 7.7252728,6.3012183 7.7252728,5.8949487 c 0,-0.5523896 0.1722137,-0.9934516 0.5425668,-1.389573 C 8.928724,3.798505 9.9397158,3.6414414 10.80938,4.1105324 l 0.242788,0.1309585 0.05235,-0.1899418 c 0.02879,-0.1044692 0.07628,-0.306765 0.10553,-0.449547 C 11.284093,3.2405294 11.261725,3.20105 10.910896,3.0741066 10.172807,2.8070353 6.9418572,1.8480323 5.8470797,1.5710769 5.4734582,1.4765582 5.3522413,1.4577139 5.2994865,1.4859462 5.1898246,1.5446349 5.0818027,1.8008919 4.8437524,2.5670582 4.519195,3.6116485 4.3578275,3.878453 4.0506004,3.878453 3.8875174,3.878453 3.7368089,3.759727 3.5397388,3.4760017 3.2011129,2.988475 2.9297272,2.8011598 2.561111,2.8005347 2.2209244,2.799931 1.8452964,3.0460316 1.6678409,3.3857159 c -0.1256183,0.2404583 -0.1256167,0.5699186 7e-6,0.8141947 0.1031242,0.2005289 0.3440039,0.4329123 0.5418416,0.5227319 0.2454787,0.1114525 0.4890628,0.089087 0.8457019,-0.077613 0.2651558,-0.1239478 0.3368441,-0.1432049 0.5331433,-0.1432049 0.2095752,0 0.2348718,0.00807 0.3331739,0.1063804 0.083848,0.083838 0.1098783,0.1428007 0.1229009,0.2783174 0.02177,0.2265517 -0.020021,0.4251988 -0.2821286,1.3413393 -0.1432568,0.5007133 -0.2262838,0.8569007 -0.2389032,1.0249195 -0.018237,0.2429707 -0.015021,0.2598212 0.057173,0.2984582 0.04208,0.022531 0.3960144,0.1389001 0.786515,0.2586077 1.0049021,0.3080641 1.2164358,0.394755 1.3922668,0.5705867 0.121746,0.121743 0.145998,0.1674895 0.1450043,0.2734417 -0.00181,0.1923858 -0.058302,0.2635932 -0.4741068,0.5975019 -0.4969689,0.3990867 -0.5864347,0.535408 -0.5852507,0.8917566 7.136e-4,0.211497 0.016618,0.285547 0.092661,0.43113 0.1186641,0.227188 0.2944104,0.400942 0.5095641,0.50379 0.2397325,0.114586 0.570427,0.09811 0.8263676,-0.04118 z"
       style="fill:#ffffff;stroke:#ffffff;stroke-width:0.0312012;stroke-miterlimit:4;stroke-dasharray:none;stroke-opacity:1" />
  </g>
</svg>
