<?xml version="1.0" encoding="UTF-8" standalone="no"?>
<svg
   xmlns:dc="http://purl.org/dc/elements/1.1/"
   xmlns:cc="http://creativecommons.org/ns#"
   xmlns:rdf="http://www.w3.org/1999/02/22-rdf-syntax-ns#"
   xmlns:svg="http://www.w3.org/2000/svg"
   xmlns="http://www.w3.org/2000/svg"
   xmlns:sodipodi="http://sodipodi.sourceforge.net/DTD/sodipodi-0.dtd"
   xmlns:inkscape="http://www.inkscape.org/namespaces/inkscape"
   inkscape:version="1.0 (4035a4fb49, 2020-05-01)"
   sodipodi:docname="unity.svg"
   id="svg6"
   preserveAspectRatio="xMidYMid"
   version="1.1"
   viewBox="0 0 256 263"
   height="263px"
   width="256px">
  <metadata
     id="metadata12">
    <rdf:RDF>
      <cc:Work
         rdf:about="">
        <dc:format>image/svg+xml</dc:format>
        <dc:type
           rdf:resource="http://purl.org/dc/dcmitype/StillImage" />
        <dc:title></dc:title>
      </cc:Work>
    </rdf:RDF>
  </metadata>
  <defs
     id="defs10" />
  <sodipodi:namedview
     inkscape:snap-global="false"
     inkscape:current-layer="svg6"
     inkscape:window-maximized="1"
     inkscape:window-y="-9"
     inkscape:window-x="-9"
     inkscape:cy="131.5"
     inkscape:cx="191.37015"
     inkscape:zoom="3.1166091"
     showgrid="false"
     id="namedview8"
     inkscape:window-height="1001"
     inkscape:window-width="1920"
     inkscape:pageshadow="2"
     inkscape:pageopacity="0"
     guidetolerance="10"
     gridtolerance="10"
     objecttolerance="10"
     borderopacity="1"
     bordercolor="#666666"
     pagecolor="#505050" />
  <g
     style="fill:#ffffff"
     fill="#222c37"
     id="g849"
     transform="matrix(1.003486,0,0,1.003486,-0.44610979,-0.45747112)">
    <path
       sodipodi:nodetypes="cccccccccccccc"
       style="fill:#ffffff"
       d="M 255.94071,104.25891 227.93262,0.06035193 123.39281,27.985268 107.91819,55.192492 76.516786,54.96748 0,131.24432 76.516786,207.50304 h 0.0032 l 31.387534,-0.23248 15.49702,27.20723 104.52808,27.92065 28.00809,-104.17937 -15.90545,-26.98221 z"
       id="path847" />
  </g>
  <g
     transform="matrix(0.94233184,0,0,0.94233184,7.3798154,7.5677581)"
     id="g4"
     fill="#222c37">
    <path
       id="path2"
       d="m 166.87233,131.23686 45.90879,-79.274513 22.18445,79.274513 -22.18445,79.25638 -45.90879,-79.25638 z m -22.37641,12.87366 45.91626,79.26278 -79.96661,-20.48673 -57.77043,-58.77605 h 91.82078 z M 190.40151,39.078026 144.49592,118.35254 H 52.67514 L 110.44557,59.573289 190.40151,39.078026 Z M 255.94071,104.25891 227.93262,0.06035193 123.39281,27.985268 107.91819,55.192492 76.516786,54.96748 0,131.24432 76.516786,207.50304 h 0.0032 l 31.387535,-0.23248 15.49702,27.20723 104.52808,27.92065 28.00809,-104.17937 -15.90545,-26.98221 15.90545,-26.97795 z" />
  </g>
</svg>
