<?xml version="1.0" encoding="UTF-8" standalone="no"?>
<svg
   xmlns:dc="http://purl.org/dc/elements/1.1/"
   xmlns:cc="http://creativecommons.org/ns#"
   xmlns:rdf="http://www.w3.org/1999/02/22-rdf-syntax-ns#"
   xmlns:svg="http://www.w3.org/2000/svg"
   xmlns="http://www.w3.org/2000/svg"
   xmlns:sodipodi="http://sodipodi.sourceforge.net/DTD/sodipodi-0.dtd"
   xmlns:inkscape="http://www.inkscape.org/namespaces/inkscape"
   sodipodi:docname="about.svg"
   inkscape:version="1.0 (4035a4fb49, 2020-05-01)"
   id="svg8"
   version="1.1"
   viewBox="0 0 12.7 12.7"
   height="48"
   width="48">
  <defs
     id="defs2" />
  <sodipodi:namedview
     inkscape:window-maximized="1"
     inkscape:window-y="-9"
     inkscape:window-x="-9"
     inkscape:window-height="1001"
     inkscape:window-width="1920"
     units="px"
     showgrid="false"
     inkscape:document-rotation="0"
     inkscape:current-layer="layer1"
     inkscape:document-units="mm"
     inkscape:cy="32.395456"
     inkscape:cx="-14.17782"
     inkscape:zoom="8.1454783"
     inkscape:pageshadow="2"
     inkscape:pageopacity="0"
     borderopacity="1.0"
     bordercolor="#666666"
     pagecolor="#404040"
     id="base" />
  <metadata
     id="metadata5">
    <rdf:RDF>
      <cc:Work
         rdf:about="">
        <dc:format>image/svg+xml</dc:format>
        <dc:type
           rdf:resource="http://purl.org/dc/dcmitype/StillImage" />
        <dc:title></dc:title>
      </cc:Work>
    </rdf:RDF>
  </metadata>
  <g
     id="layer1"
     inkscape:groupmode="layer"
     inkscape:label="Warstwa 1">
    <path
       id="path884"
       d="M 10.979619,12.511646 C 10.90954,12.436685 10.717944,12.18836 10.553853,11.959811 10.068637,11.284001 9.8179613,11.052494 9.1482599,10.661706 7.3798463,9.6297918 4.7769525,9.7899852 3.2266808,11.026145 c -0.443142,0.353355 -0.610599,0.520264 -0.798327,0.795719 -0.415107,0.609087 -0.545196,0.721777 -0.832994,0.721588 -0.340092,-2.24e-4 -0.504047,-0.177162 -0.505168,-0.545171 -8.31e-4,-0.272412 0.10277,-0.462476 0.453657,-0.832273 0.143174,-0.150889 0.317579,-0.339298 0.387566,-0.418687 C 2.7155738,9.8578285 4.1825141,9.150476 5.6281895,8.9647514 6.0260062,8.9136434 6.1385184,8.8869204 5.9558694,8.8869204 5.7591943,8.8869204 5.236535,8.7813011 4.8911768,8.6717672 3.5647975,8.2510909 2.4577568,7.2560758 1.9709598,6.047056 1.4731878,4.8107799 1.6913028,3.4234856 2.5607048,2.296051 2.7836078,2.0069931 3.2326788,1.5834049 3.559544,1.3538935 3.8723521,1.134252 4.4996207,0.81692659 4.840336,0.7059605 5.6454848,0.44373513 6.6569181,0.39502567 7.504343,0.57766503 c 1.3781477,0.29702239 2.607285,1.18301887 3.191925,2.30083047 0.302529,0.5784231 0.445622,1.1585007 0.445622,1.8064827 0,1.4847765 -0.813892,2.7792774 -2.2571332,3.5899889 C 8.3915748,8.5520017 7.7162423,8.7776364 7.08161,8.8774142 l -0.1786522,0.028088 0.3248224,0.041355 c 1.4353621,0.1827465 2.7240751,0.8049421 3.6721558,1.7729318 0.381881,0.3899 0.490586,0.525822 0.727808,0.910032 0.217878,0.352881 0.237531,0.452059 0.13413,0.676905 -0.08815,0.191679 -0.259318,0.308822 -0.477343,0.326676 -0.174252,0.01427 -0.179822,0.01205 -0.304912,-0.121756 z M 7.0741184,7.8745096 C 8.1802262,7.7123228 9.0998826,7.1156454 9.6600405,6.196751 10.196575,5.3166093 10.222238,4.175133 9.7257135,3.275744 9.2150622,2.3507669 8.2217065,1.6682967 7.1303336,1.4926266 5.4775247,1.2265864 3.7538778,2.0126727 3.1123778,3.3250552 2.3714628,4.8408244 2.9907428,6.6549573 4.5238542,7.4598613 5.2791547,7.8564043 6.1888596,8.0043136 7.0741184,7.8745096 Z"
       style="fill:#ffffff;stroke:none;stroke-width:0.0243994;stroke-miterlimit:4;stroke-dasharray:none;stroke-opacity:1" />
  </g>
</svg>
