<?xml version="1.0" encoding="UTF-8" standalone="no"?>
<svg
   xmlns:dc="http://purl.org/dc/elements/1.1/"
   xmlns:cc="http://creativecommons.org/ns#"
   xmlns:rdf="http://www.w3.org/1999/02/22-rdf-syntax-ns#"
   xmlns:svg="http://www.w3.org/2000/svg"
   xmlns="http://www.w3.org/2000/svg"
   xmlns:sodipodi="http://sodipodi.sourceforge.net/DTD/sodipodi-0.dtd"
   xmlns:inkscape="http://www.inkscape.org/namespaces/inkscape"
   inkscape:version="1.0 (4035a4fb49, 2020-05-01)"
   sodipodi:docname="logo.svg"
   id="svg8"
   version="1.1"
   viewBox="0 0 79.375005 79.375002"
   height="300"
   width="300">
  <defs
     id="defs2">
    <rect
       id="rect845"
       height="50.83532"
       width="79.772346"
       y="212.72626"
       x="81.33651" />
    <rect
       x="81.33651"
       y="212.72626"
       width="79.772346"
       height="50.83532"
       id="rect845-0" />
    <rect
       x="81.33651"
       y="212.72626"
       width="79.772346"
       height="50.83532"
       id="rect858" />
    <rect
       x="81.33651"
       y="212.72626"
       width="79.772346"
       height="50.83532"
       id="rect845-9" />
    <rect
       x="81.33651"
       y="212.72626"
       width="79.772346"
       height="50.83532"
       id="rect926" />
    <rect
       id="rect845-0-2"
       height="50.83532"
       width="79.772346"
       y="212.72626"
       x="81.33651" />
    <rect
       id="rect955"
       height="50.83532"
       width="79.772346"
       y="212.72626"
       x="81.33651" />
  </defs>
  <sodipodi:namedview
     width="500px"
     units="px"
     inkscape:snap-global="false"
     inkscape:window-maximized="0"
     inkscape:window-y="0"
     inkscape:window-x="-9"
     inkscape:window-height="1030"
     inkscape:window-width="1661"
     showgrid="false"
     inkscape:document-rotation="0"
     inkscape:current-layer="layer1"
     inkscape:document-units="mm"
     inkscape:cy="411.4431"
     inkscape:cx="-50.624876"
     inkscape:zoom="0.61039333"
     inkscape:pageshadow="2"
     inkscape:pageopacity="0"
     borderopacity="1.0"
     bordercolor="#666666"
     pagecolor="#000000"
     id="base" />
  <metadata
     id="metadata5">
    <rdf:RDF>
      <cc:Work
         rdf:about="">
        <dc:format>image/svg+xml</dc:format>
        <dc:type
           rdf:resource="http://purl.org/dc/dcmitype/StillImage" />
        <dc:title></dc:title>
      </cc:Work>
    </rdf:RDF>
  </metadata>
  <g
     id="layer1"
     inkscape:groupmode="layer"
     inkscape:label="Warstwa 1">
    <path
       id="path1072"
       d="M 39.949445,77.319463 C 33.481018,75.029404 11.493938,63.42101 8.672943,60.806595 8.0342545,60.214681 7.7233144,59.424173 7.4353675,57.660274 6.4659418,51.72183 5.4943854,32.181911 5.8680313,26.137876 l 0.2425229,-3.922994 1.3804467,-1.27654 C 11.572283,17.16423 33.287471,3.3844148 37.506964,1.8910872 39.263882,1.2692944 40.805754,1.8271832 50.381599,6.5494887 62.1201,12.338293 71.818767,17.90977 72.517084,19.265397 c 0.427666,0.830199 0.698731,2.581697 1.263439,8.163623 0.568614,5.620628 1.052639,25.99658 0.67704,28.501258 -0.226884,1.512918 -0.416066,1.757583 -2.863652,3.703371 -6.649797,5.286474 -25.8549,17.187422 -29.228855,18.112433 -0.375244,0.102877 -1.462269,-0.08909 -2.415611,-0.426619 z m 2.555789,-5.017287 c 0.694248,-0.185753 0.53772,-0.29292 -1.004196,-0.687529 -3.318455,-0.849253 -5.236962,-2.880123 -5.236962,-5.543688 0,-2.233174 1.066192,-3.839372 3.281302,-4.943209 1.928198,-0.96086 2.837493,-1.057584 4.805315,-0.51115 2.6066,0.72381 5.156634,4.100115 4.462637,5.908638 -0.391209,1.019465 0.769915,0.581058 2.240248,-0.845859 1.966565,-1.908478 3.136345,-4.544729 7.479681,-16.856365 2.051879,-5.816263 3.89608,-11.004555 4.098209,-11.529532 l 0.367521,-0.954503 -8.611316,0.101679 -8.611331,0.101679 -2.140271,1.308925 c -1.49158,0.912207 -2.344561,1.709381 -2.814322,2.630167 -0.906113,1.776142 -0.886094,3.865409 0.04602,4.797481 l 0.720022,0.720022 0.618403,-1.381231 c 1.230104,-2.747553 4.915324,-4.384965 7.873923,-3.498547 5.123165,1.534935 5.900715,7.927936 1.252653,10.299196 -3.957069,2.018749 -11.178928,0.515834 -13.674956,-2.84584 -1.148681,-1.547066 -1.603616,-3.092974 -1.603616,-5.449176 0,-1.230472 -0.130354,-1.935455 -0.334511,-1.809279 -0.18396,0.113693 -2.27675,0.707744 -4.650621,1.320097 l -4.316142,1.113371 -1.430117,4.072829 -1.430132,4.072832 -4.314217,0.0954 -4.314233,0.09541 1.433195,-4.018398 c 0.788262,-2.210119 2.742102,-7.7026 4.341872,-12.205516 l 2.908676,-8.187116 4.176895,-0.09579 c 2.574433,-0.05904 4.176895,0.03289 4.176895,0.239604 0,0.184461 -0.865216,2.726741 -1.922694,5.649508 -1.057492,2.922768 -1.848403,5.388434 -1.757584,5.479259 0.301411,0.301403 4.839716,-1.25855 7.109615,-2.443789 5.076217,-2.650567 7.840854,-7.224115 6.313067,-10.443689 -0.986367,-2.078614 -1.020635,-2.083328 -16.265827,-2.236942 l -13.857722,-0.13963 -0.555031,0.792401 c -1.001726,1.430176 -0.682382,19.521277 0.517094,29.293 0.474496,3.865565 0.531639,3.935009 5.829205,7.084016 6.714486,3.991274 22.245361,11.660982 23.629818,11.669274 0.187614,7.61e-4 0.711233,-0.09699 1.16358,-0.218007 z M 66.666839,57.275899 c 1.900736,-1.437336 2.553052,-2.154364 2.832432,-3.11337 0.214011,-0.734658 0.320543,-3.625764 0.259568,-7.045164 l -0.103425,-5.799209 -2.523534,7.163729 c -1.387948,3.94005 -3.038764,8.217955 -3.668471,9.506454 l -1.144937,2.342732 0.939434,-0.593879 c 0.516679,-0.326631 2.050695,-1.434216 3.408903,-2.461293 z M 68.984204,28.088012 C 68.472851,23.244738 68.190748,22.265862 67.017077,21.262211 63.535821,18.285261 42.610405,7.5496164 39.467462,7.1280592 38.504591,6.998904 37.671126,7.2424626 35.728946,8.2205357 33.376972,9.4049677 27.555816,12.894141 22.286673,16.277779 l -2.339634,1.502414 12.232396,0.200019 c 7.776106,0.127158 12.872608,0.352307 13.989758,0.618047 3.642119,0.866354 5.865337,3.065378 6.36549,6.296231 0.186934,1.207591 -0.118369,3.756486 -0.598458,4.995816 -0.173617,0.44819 0.885843,0.4997 8.536832,0.415051 l 8.735042,-0.09665 z"
       style="fill:#ffffff;fill-opacity:1;stroke:none;stroke-width:6.2725;stroke-miterlimit:4;stroke-dasharray:none;stroke-opacity:1" />
  </g>
</svg>
