<?xml version="1.0" encoding="UTF-8" standalone="no"?>
<svg
   xmlns:dc="http://purl.org/dc/elements/1.1/"
   xmlns:cc="http://creativecommons.org/ns#"
   xmlns:rdf="http://www.w3.org/1999/02/22-rdf-syntax-ns#"
   xmlns:svg="http://www.w3.org/2000/svg"
   xmlns="http://www.w3.org/2000/svg"
   xmlns:sodipodi="http://sodipodi.sourceforge.net/DTD/sodipodi-0.dtd"
   xmlns:inkscape="http://www.inkscape.org/namespaces/inkscape"
   inkscape:version="1.0 (4035a4fb49, 2020-05-01)"
   sodipodi:docname="logo.svg"
   id="svg8"
   version="1.1"
   viewBox="0 0 79.375005 79.375002"
   height="300"
   width="300">
  <defs
     id="defs2">
    <rect
       id="rect845"
       height="50.83532"
       width="79.772346"
       y="212.72626"
       x="81.33651" />
    <rect
       x="81.33651"
       y="212.72626"
       width="79.772346"
       height="50.83532"
       id="rect845-0" />
    <rect
       x="81.33651"
       y="212.72626"
       width="79.772346"
       height="50.83532"
       id="rect858" />
    <rect
       x="81.33651"
       y="212.72626"
       width="79.772346"
       height="50.83532"
       id="rect845-9" />
    <rect
       x="81.33651"
       y="212.72626"
       width="79.772346"
       height="50.83532"
       id="rect926" />
    <rect
       id="rect845-0-2"
       height="50.83532"
       width="79.772346"
       y="212.72626"
       x="81.33651" />
    <rect
       id="rect955"
       height="50.83532"
       width="79.772346"
       y="212.72626"
       x="81.33651" />
  </defs>
  <sodipodi:namedview
     width="500px"
     units="px"
     inkscape:snap-global="false"
     inkscape:window-maximized="1"
     inkscape:window-y="-9"
     inkscape:window-x="-9"
     inkscape:window-height="1001"
     inkscape:window-width="1920"
     showgrid="false"
     inkscape:document-rotation="0"
     inkscape:current-layer="layer1"
     inkscape:document-units="mm"
     inkscape:cy="479.23971"
     inkscape:cx="284.12089"
     inkscape:zoom="0.59"
     inkscape:pageshadow="2"
     inkscape:pageopacity="0"
     borderopacity="1.0"
     bordercolor="#666666"
     pagecolor="#000000"
     id="base" />
  <metadata
     id="metadata5">
    <rdf:RDF>
      <cc:Work
         rdf:about="">
        <dc:format>image/svg+xml</dc:format>
        <dc:type
           rdf:resource="http://purl.org/dc/dcmitype/StillImage" />
        <dc:title></dc:title>
      </cc:Work>
    </rdf:RDF>
  </metadata>
  <g
     id="layer1"
     inkscape:groupmode="layer"
     inkscape:label="Warstwa 1">
    <g
       transform="matrix(0.86179547,0,0,0.86179547,-29.184753,-27.719397)"
       id="g1035">
      <path
         transform="rotate(37.719099,78.995114,66.298959)"
         d="M 111.42947,92.703787 C 109.77584,95.280372 80.482951,110.40475 77.424748,110.26096 74.366544,110.11717 46.622001,92.310968 45.217427,89.59059 43.812853,86.870212 45.361202,53.939632 47.014832,51.363047 48.668461,48.786461 77.961354,33.662081 81.019558,33.805874 c 3.058203,0.143792 30.802742,17.949992 32.207322,20.67037 1.40457,2.720378 -0.14378,35.650957 -1.79741,38.227543 z"
         inkscape:randomized="0"
         inkscape:rounded="0.08"
         inkscape:flatsided="true"
         sodipodi:arg2="1.0941815"
         sodipodi:arg1="0.57058276"
         sodipodi:r2="33.142601"
         sodipodi:r1="38.269775"
         sodipodi:cy="72.033417"
         sodipodi:cx="79.222153"
         sodipodi:sides="6"
         id="path833-7"
         style="fill:#f2f2f2;fill-opacity:1;stroke-width:0.234796"
         sodipodi:type="star" />
      <path
         sodipodi:type="star"
         style="fill:#800000;fill-opacity:1;stroke-width:0.234796"
         id="path833"
         sodipodi:sides="6"
         sodipodi:cx="79.222153"
         sodipodi:cy="72.033417"
         sodipodi:r1="38.269775"
         sodipodi:r2="33.142601"
         sodipodi:arg1="0.57058276"
         sodipodi:arg2="1.0941815"
         inkscape:flatsided="true"
         inkscape:rounded="0.08"
         inkscape:randomized="0"
         d="M 111.42947,92.703787 C 109.77584,95.280372 80.482951,110.40475 77.424748,110.26096 74.366544,110.11717 46.622001,92.310968 45.217427,89.59059 43.812853,86.870212 45.361202,53.939632 47.014832,51.363047 48.668461,48.786461 77.961354,33.662081 81.019558,33.805874 c 3.058203,0.143792 30.802742,17.949992 32.207322,20.67037 1.40457,2.720378 -0.14378,35.650957 -1.79741,38.227543 z"
         transform="rotate(37.719099,77.993794,74.050946)" />
      <path
         transform="rotate(37.719099,75.974558,84.588451)"
         d="M 111.42947,92.703787 C 109.77584,95.280372 80.482951,110.40475 77.424748,110.26096 74.366544,110.11717 46.622001,92.310968 45.217427,89.59059 43.812853,86.870212 45.361202,53.939632 47.014832,51.363047 48.668461,48.786461 77.961354,33.662081 81.019558,33.805874 c 3.058203,0.143792 30.802742,17.949992 32.207322,20.67037 1.40457,2.720378 -0.14378,35.650957 -1.79741,38.227543 z"
         inkscape:randomized="0"
         inkscape:rounded="0.08"
         inkscape:flatsided="true"
         sodipodi:arg2="1.0941815"
         sodipodi:arg1="0.57058276"
         sodipodi:r2="33.142601"
         sodipodi:r1="38.269775"
         sodipodi:cy="72.033417"
         sodipodi:cx="79.222153"
         sodipodi:sides="6"
         id="path833-9"
         style="fill:#d40000;fill-opacity:1;stroke-width:0.234796"
         sodipodi:type="star" />
      <path
         id="path1009"
         d="m 66.51025,90.264054 c -8.612081,-1.119688 -15.108213,-8.406133 -15.1028,-16.940207 0.0013,-2.202633 0.214321,-2.930869 1.176552,-4.024019 1.138005,-1.292842 2.288945,-1.793129 4.101412,-1.782787 1.663455,0.0095 2.508265,0.305345 3.593985,1.258621 1.08809,0.955355 1.49148,1.915993 1.70998,4.072149 0.31349,3.093386 1.37492,4.829167 3.73527,6.10834 1.164721,0.631211 1.322701,0.663884 3.180791,0.65786 1.64504,-0.0053 2.10347,-0.07891 2.8898,-0.46382 1.38863,-0.679725 2.78108,-2.029743 3.40589,-3.302087 l 0.54753,-1.114976 0.0978,-18.88178 0.0978,-18.88178 0.59096,-1.159068 c 2.13397,-4.18543 8.6515,-3.433448 9.88308,1.140296 0.27767,1.031155 0.25103,36.367566 -0.029,38.41556 -0.26639,1.948563 -1.16903,4.655534 -2.06192,6.183569 -3.66992,6.280502 -10.57178,9.656119 -17.8171,8.714129 z"
         style="fill:#800000;fill-opacity:1;stroke:none;stroke-width:0.282289" />
      <path
         style="fill:#ffffff;fill-opacity:1;stroke:none;stroke-width:0.282289"
         d="m 68.269934,92.414779 c -8.612081,-1.119688 -15.108213,-8.406133 -15.1028,-16.940207 0.0013,-2.202633 0.214321,-2.930869 1.176552,-4.024019 1.138005,-1.292842 2.288945,-1.793129 4.101412,-1.782787 1.663455,0.0095 2.508265,0.305345 3.593985,1.258621 1.08809,0.955355 1.49148,1.915993 1.70998,4.072149 0.31349,3.093386 1.37492,4.829167 3.73527,6.10834 1.164721,0.631211 1.322701,0.663884 3.180791,0.65786 1.64504,-0.0053 2.10347,-0.07891 2.8898,-0.46382 1.38863,-0.679725 2.78108,-2.029743 3.40589,-3.302087 l 0.54753,-1.114976 0.0978,-18.88178 0.0978,-18.88178 0.59096,-1.159068 c 2.13397,-4.18543 8.6515,-3.433448 9.88308,1.140296 0.27767,1.031155 0.25103,36.367566 -0.029,38.41556 -0.26639,1.948563 -1.16903,4.655534 -2.06192,6.183569 -3.66992,6.280502 -10.57178,9.656119 -17.8171,8.714129 z"
         id="path1014" />
      <path
         id="path1003"
         d="m 83.52876,120.75004 c -1.3827,-0.45338 -2.55218,-1.44661 -3.25181,-2.76174 -0.34763,-0.65346 -0.36402,-1.51325 -0.36345,-19.063237 l 5.3e-4,-18.37893 0.53186,-1.93014 c 1.93081,-7.007025 7.24017,-12.264499 14.38995,-14.249316 1.28602,-0.357005 2.04613,-0.418261 5.31335,-0.428194 4.3437,-0.0132 5.76699,0.254262 8.72389,1.639409 4.26926,1.999908 8.05621,5.74916 9.9525,9.853432 2.81828,6.099799 2.35445,13.863719 -1.17137,19.607169 -1.30563,2.12684 -4.77029,5.535897 -6.85545,6.745457 -3.12314,1.81166 -6.3223,2.70985 -9.85787,2.76769 -1.79185,0.0293 -2.19843,-0.027 -3.09757,-0.42903 -2.02966,-0.90752 -3.1371,-2.97232 -2.90831,-5.422447 0.0629,-0.6739 0.28767,-1.56487 0.49942,-1.97993 0.84081,-1.64813 2.80478,-2.78095 4.82132,-2.78095 2.60185,0 5.09935,-1.11057 6.97943,-3.10356 1.94234,-2.05899 2.67618,-3.88461 2.68525,-6.68026 0.009,-2.91391 -0.91514,-5.01747 -3.11096,-7.077875 -1.52238,-1.428504 -3.11418,-2.209755 -5.14499,-2.525135 -5.37696,-0.835036 -10.39527,2.895809 -11.08924,8.24425 -0.10915,0.84123 -0.19303,8.36967 -0.19712,17.692517 -0.005,10.55733 -0.0778,16.48268 -0.20939,16.95646 -0.29708,1.06971 -1.32576,2.28828 -2.40493,2.84887 -1.01426,0.52688 -3.27565,0.77009 -4.23511,0.45549 z"
         style="fill:#800000;fill-opacity:1;stroke:none;stroke-width:0.282289" />
      <path
         style="fill:#ffffff;fill-opacity:1;stroke:none;stroke-width:0.282289"
         d="m 85.092921,123.48733 c -1.3827,-0.45338 -2.55218,-1.44661 -3.25181,-2.76174 -0.34763,-0.65346 -0.36402,-1.51325 -0.36345,-19.06324 l 5.3e-4,-18.378931 0.53186,-1.930138 c 1.93081,-7.007027 7.24017,-12.264501 14.38995,-14.249318 1.28602,-0.357005 2.04613,-0.418261 5.313349,-0.428194 4.3437,-0.0132 5.76698,0.254262 8.72389,1.639409 4.26926,1.999908 8.05621,5.74916 9.9525,9.853432 2.81828,6.099802 2.35445,13.863714 -1.17137,19.607168 -1.30563,2.126834 -4.77029,5.535892 -6.85545,6.745452 -3.12314,1.81166 -6.3223,2.70985 -9.85787,2.76769 -1.79185,0.0293 -2.19843,-0.027 -3.097569,-0.42903 -2.02966,-0.90752 -3.1371,-2.97232 -2.90831,-5.42244 0.0629,-0.6739 0.28767,-1.564873 0.49942,-1.979933 0.84081,-1.648127 2.80478,-2.780946 4.821319,-2.780946 2.60185,0 5.09934,-1.110575 6.97943,-3.103567 1.94234,-2.058983 2.67618,-3.884607 2.68525,-6.680258 0.009,-2.913904 -0.91514,-5.017469 -3.11096,-7.077872 -1.52239,-1.428504 -3.11418,-2.209755 -5.14499,-2.525135 -5.376959,-0.835036 -10.395269,2.895809 -11.089239,8.244252 -0.10915,0.841227 -0.19303,8.36967 -0.19712,17.692519 -0.005,10.55733 -0.0778,16.48268 -0.20939,16.95646 -0.29708,1.06971 -1.32576,2.28828 -2.40493,2.84887 -1.01426,0.52688 -3.27565,0.77009 -4.23511,0.45549 z"
         id="path1005" />
    </g>
  </g>
</svg>
